<?xml version="1.0" encoding="UTF-8"?>
<svg xmlns="http://www.w3.org/2000/svg" width="900" height="460" viewBox="0 0 900 460" role="img" aria-label="Search Latency — ARM (Apple M3 Max) — Single-threaded">
  <style>
  text { font-family: -apple-system, BlinkMacSystemFont, "Segoe UI", sans-serif; }
  .title { font: 700 20px -apple-system, BlinkMacSystemFont, "Segoe UI", sans-serif; fill: #ffffff; }
  .subtitle { font: 400 12px -apple-system, BlinkMacSystemFont, "Segoe UI", sans-serif; fill: #8d8d96; }
  .panel { font: 700 14px -apple-system, BlinkMacSystemFont, "Segoe UI", sans-serif; fill: #ffffff; }
  .label { font: 600 12px -apple-system, BlinkMacSystemFont, "Segoe UI", sans-serif; fill: #f5f5f7; }
  .secondary { font: 400 11px -apple-system, BlinkMacSystemFont, "Segoe UI", sans-serif; fill: #9c9ca6; }
  .tick { font: 400 11px -apple-system, BlinkMacSystemFont, "Segoe UI", sans-serif; fill: #777782; }
  .value { font: 700 11px -apple-system, BlinkMacSystemFont, "Segoe UI", sans-serif; fill: #f5f5f7; }
  .value-accent { font: 700 11px -apple-system, BlinkMacSystemFont, "Segoe UI", sans-serif; fill: #d8d0ff; }
  .axis { font: 600 12px -apple-system, BlinkMacSystemFont, "Segoe UI", sans-serif; fill: #d7d7df; }
  .legend { font: 600 12px -apple-system, BlinkMacSystemFont, "Segoe UI", sans-serif; fill: #f5f5f7; }
</style>
  <rect width="100%" height="100%" fill="#000000" />
  <text x="84" y="32" class="title">Search Latency — ARM (Apple M3 Max) — Single-threaded</text>
  <text x="84" y="52" class="subtitle">100K vectors, 1K queries, k=64, median of 5 runs</text>
  <line x1="84" y1="352.0" x2="868" y2="352.0" stroke="#202026" stroke-width="1" />
<text x="74" y="356.0" text-anchor="end" class="tick">0.0</text>
<line x1="84" y1="298.0" x2="868" y2="298.0" stroke="#202026" stroke-width="1" />
<text x="74" y="302.0" text-anchor="end" class="tick">2.0</text>
<line x1="84" y1="244.0" x2="868" y2="244.0" stroke="#202026" stroke-width="1" />
<text x="74" y="248.0" text-anchor="end" class="tick">4.0</text>
<line x1="84" y1="190.0" x2="868" y2="190.0" stroke="#202026" stroke-width="1" />
<text x="74" y="194.0" text-anchor="end" class="tick">6.0</text>
<line x1="84" y1="136.0" x2="868" y2="136.0" stroke="#202026" stroke-width="1" />
<text x="74" y="140.0" text-anchor="end" class="tick">8.0</text>
<line x1="84" y1="82.0" x2="868" y2="82.0" stroke="#202026" stroke-width="1" />
<text x="74" y="86.0" text-anchor="end" class="tick">10.0</text>
<line x1="84" y1="352.0" x2="868" y2="352.0" stroke="#4b4b56" stroke-width="1.5" />
<text x="84" y="68" class="panel">Single-threaded</text>
<rect x="135.0" y="322.8" width="44" height="29.2" rx="6" fill="#8b6cff" stroke="#c5b7ff" stroke-width="1.5" />
<rect x="185.0" y="318.7" width="44" height="33.3" rx="6" fill="#6f717c" />
<text x="157.0" y="316.8" text-anchor="middle" class="value-accent">1.08</text>
<text x="207.0" y="312.7" text-anchor="middle" class="value">1.24</text>
<text x="182.0" y="374" text-anchor="middle" class="label">d=1536</text>
<text x="182.0" y="389" text-anchor="middle" class="secondary">2-bit</text>
<rect x="331.0" y="298.2" width="44" height="53.8" rx="6" fill="#8b6cff" stroke="#c5b7ff" stroke-width="1.5" />
<rect x="381.0" y="285.9" width="44" height="66.2" rx="6" fill="#6f717c" />
<text x="353.0" y="292.2" text-anchor="middle" class="value-accent">1.99</text>
<text x="403.0" y="279.9" text-anchor="middle" class="value">2.45</text>
<text x="378.0" y="374" text-anchor="middle" class="label">d=1536</text>
<text x="378.0" y="389" text-anchor="middle" class="secondary">4-bit</text>
<rect x="527.0" y="294.7" width="44" height="57.3" rx="6" fill="#8b6cff" stroke="#c5b7ff" stroke-width="1.5" />
<rect x="577.0" y="286.1" width="44" height="65.9" rx="6" fill="#6f717c" />
<text x="549.0" y="288.7" text-anchor="middle" class="value-accent">2.12</text>
<text x="599.0" y="280.1" text-anchor="middle" class="value">2.44</text>
<text x="574.0" y="374" text-anchor="middle" class="label">d=3072</text>
<text x="574.0" y="389" text-anchor="middle" class="secondary">2-bit</text>
<rect x="723.0" y="244.9" width="44" height="107.1" rx="6" fill="#8b6cff" stroke="#c5b7ff" stroke-width="1.5" />
<rect x="773.0" y="219.0" width="44" height="133.0" rx="6" fill="#6f717c" />
<text x="745.0" y="238.9" text-anchor="middle" class="value-accent">3.97</text>
<text x="795.0" y="213.0" text-anchor="middle" class="value">4.92</text>
<text x="770.0" y="374" text-anchor="middle" class="label">d=3072</text>
<text x="770.0" y="389" text-anchor="middle" class="secondary">4-bit</text>
<text x="26" y="217.0" transform="rotate(-90, 26, 217.0)" class="axis">ms / query</text>
<rect x="84" y="424" width="14" height="14" rx="3" fill="#8b6cff" stroke="#c5b7ff" stroke-width="1.5" />
<text x="106" y="435" class="legend" style="fill: #d8d0ff;">TurboQuant</text>
<rect x="224" y="424" width="14" height="14" rx="3" fill="#6f717c" />
<text x="246" y="435" class="legend">FAISS</text>
</svg>
