<?xml version="1.0" encoding="UTF-8"?>
<svg xmlns="http://www.w3.org/2000/svg" width="1200" height="640" viewBox="0 0 1200 640" role="img" aria-label="Index Size — TurboQuant">
  <style>
  text { font-family: "Satoshi", -apple-system, BlinkMacSystemFont, "Segoe UI", sans-serif; }
  .title { font: 800 30px "Satoshi", -apple-system, BlinkMacSystemFont, "Segoe UI", sans-serif; fill: #ffffff; }
  .subtitle { font: 600 17px "Satoshi", -apple-system, BlinkMacSystemFont, "Segoe UI", sans-serif; fill: #d7d7d9; }
  .panel { font: 700 18px "Satoshi", -apple-system, BlinkMacSystemFont, "Segoe UI", sans-serif; fill: #ffffff; letter-spacing: 1.2px; }
  .label { font: 700 16px "Satoshi", -apple-system, BlinkMacSystemFont, "Segoe UI", sans-serif; fill: #f2f2f2; }
  .secondary { font: 500 14px "Satoshi", -apple-system, BlinkMacSystemFont, "Segoe UI", sans-serif; fill: #a9a9ad; }
  .tick { font: 500 13px "Satoshi", -apple-system, BlinkMacSystemFont, "Segoe UI", sans-serif; fill: #85858b; }
  .value { font: 700 14px "Satoshi", -apple-system, BlinkMacSystemFont, "Segoe UI", sans-serif; fill: #f2f2f2; }
  .value-accent { font: 800 14px "Satoshi", -apple-system, BlinkMacSystemFont, "Segoe UI", sans-serif; fill: #ff6a1f; }
  .axis { font: 700 15px "Satoshi", -apple-system, BlinkMacSystemFont, "Segoe UI", sans-serif; fill: #d9d9dc; }
  .legend { font: 700 14px "Satoshi", -apple-system, BlinkMacSystemFont, "Segoe UI", sans-serif; fill: #f2f2f2; }
  .mono { font-family: "SFMono-Regular", Consolas, "Liberation Mono", monospace; }
</style>
  <defs><pattern id="dotgrid" width="8" height="8" patternUnits="userSpaceOnUse"><circle cx="1" cy="1" r="0.75" fill="#3a3a3a" opacity="0.7" /></pattern><marker id="arr" markerWidth="8" markerHeight="8" refX="7" refY="4" orient="auto"><path d="M0,0 L8,4 L0,8 z" fill="#5b5b5f"/></marker></defs>
  <rect width="100%" height="100%" fill="#080808" />
  <text x="112" y="46" class="title">Index Size — 100K vectors</text>
  <text x="112" y="76" class="subtitle">TurboQuant packs vectors ~16× smaller than FP32 at 2-bit with comparable recall</text>
  <rect x="112" y="118" width="1036" height="374" fill="#171717" stroke="#323232" stroke-width="1"/>
<rect x="112" y="118" width="1036" height="374" fill="url(#dotgrid)" opacity="0.95"/>
<line x1="112" y1="492.0" x2="1148" y2="492.0" stroke="#2b2b2b" stroke-width="1" />
<text x="102" y="496.0" text-anchor="end" class="tick">0</text>
<line x1="112" y1="417.2" x2="1148" y2="417.2" stroke="#2b2b2b" stroke-width="1" />
<text x="102" y="421.2" text-anchor="end" class="tick">300</text>
<line x1="112" y1="342.4" x2="1148" y2="342.4" stroke="#2b2b2b" stroke-width="1" />
<text x="102" y="346.4" text-anchor="end" class="tick">600</text>
<line x1="112" y1="267.6" x2="1148" y2="267.6" stroke="#2b2b2b" stroke-width="1" />
<text x="102" y="271.6" text-anchor="end" class="tick">900</text>
<line x1="112" y1="192.8" x2="1148" y2="192.8" stroke="#2b2b2b" stroke-width="1" />
<text x="102" y="196.8" text-anchor="end" class="tick">1200</text>
<line x1="112" y1="118.0" x2="1148" y2="118.0" stroke="#2b2b2b" stroke-width="1" />
<text x="102" y="122.0" text-anchor="end" class="tick">1500</text>
<line x1="112" y1="492.0" x2="1148" y2="492.0" stroke="#5b5b5f" stroke-width="1.5" />
<rect x="190.7" y="473.0" width="56" height="19.0" fill="#545457" />
<text x="218.7" y="467.0" text-anchor="middle" class="value">76</text>
<rect x="256.7" y="489.5" width="56" height="2.5" fill="#77777d" />
<text x="284.7" y="483.5" text-anchor="middle" class="value">10</text>
<rect x="322.7" y="490.7" width="56" height="1.3" fill="#ff5a14" stroke="#ff8a4d" stroke-width="1.5" />
<text x="350.7" y="484.7" text-anchor="middle" class="value-accent">5</text>
<text x="284.7" y="514" text-anchor="middle" class="label">GloVe</text>
<text x="284.7" y="529" text-anchor="middle" class="secondary">d=200</text>
<rect x="536.0" y="345.9" width="56" height="146.1" fill="#545457" />
<text x="564.0" y="339.9" text-anchor="middle" class="value">586</text>
<rect x="602.0" y="473.6" width="56" height="18.4" fill="#77777d" />
<text x="630.0" y="467.6" text-anchor="middle" class="value">74</text>
<rect x="668.0" y="482.8" width="56" height="9.2" fill="#ff5a14" stroke="#ff8a4d" stroke-width="1.5" />
<text x="696.0" y="476.8" text-anchor="middle" class="value-accent">37</text>
<text x="630.0" y="514" text-anchor="middle" class="label">OpenAI</text>
<text x="630.0" y="529" text-anchor="middle" class="secondary">d=1536</text>
<rect x="881.3" y="199.8" width="56" height="292.2" fill="#545457" />
<text x="909.3" y="193.8" text-anchor="middle" class="value">1172</text>
<rect x="947.3" y="455.4" width="56" height="36.6" fill="#77777d" />
<text x="975.3" y="449.4" text-anchor="middle" class="value">147</text>
<rect x="1013.3" y="473.6" width="56" height="18.4" fill="#ff5a14" stroke="#ff8a4d" stroke-width="1.5" />
<text x="1041.3" y="467.6" text-anchor="middle" class="value-accent">74</text>
<text x="975.3" y="514" text-anchor="middle" class="label">OpenAI</text>
<text x="975.3" y="529" text-anchor="middle" class="secondary">d=3072</text>
<text x="26" y="305.0" transform="rotate(-90, 26, 305.0)" class="axis">Index size (MB)</text>
<rect x="112" y="604" width="14" height="14" fill="#545457" />
<text x="134" y="615" class="legend">FP32</text>
<rect x="232" y="604" width="14" height="14" fill="#77777d" />
<text x="254" y="615" class="legend">4-bit</text>
<rect x="352" y="604" width="14" height="14" fill="#ff5a14" stroke="#ff8a4d" stroke-width="1.5" />
<text x="374" y="615" class="legend">2-bit</text>
</svg>
