<svg xmlns="http://www.w3.org/2000/svg" viewBox="0 0 720 360" width="720" height="360">
<style>
  text { font-family: -apple-system, BlinkMacSystemFont, "Segoe UI", sans-serif; }
  .title { font: 700 20px -apple-system, BlinkMacSystemFont, "Segoe UI", sans-serif; fill: #ffffff; }
  .subtitle { font: 400 12px -apple-system, BlinkMacSystemFont, "Segoe UI", sans-serif; fill: #8d8d96; }
  .panel { font: 700 14px -apple-system, BlinkMacSystemFont, "Segoe UI", sans-serif; fill: #ffffff; }
  .label { font: 600 12px -apple-system, BlinkMacSystemFont, "Segoe UI", sans-serif; fill: #f5f5f7; }
  .secondary { font: 400 11px -apple-system, BlinkMacSystemFont, "Segoe UI", sans-serif; fill: #9c9ca6; }
  .tick { font: 400 11px -apple-system, BlinkMacSystemFont, "Segoe UI", sans-serif; fill: #777782; }
  .value { font: 700 11px -apple-system, BlinkMacSystemFont, "Segoe UI", sans-serif; fill: #f5f5f7; }
  .value-accent { font: 700 11px -apple-system, BlinkMacSystemFont, "Segoe UI", sans-serif; fill: #d8d0ff; }
  .axis { font: 600 12px -apple-system, BlinkMacSystemFont, "Segoe UI", sans-serif; fill: #d7d7df; }
  .legend { font: 600 12px -apple-system, BlinkMacSystemFont, "Segoe UI", sans-serif; fill: #f5f5f7; }
</style>
<rect width="100%" height="100%" fill="#000000" />
<text x="360" y="28" text-anchor="middle" font-size="16" font-weight="700" fill="#ffffff">graph_view_bench: latency by selectivity (ms)</text>
<text x="360" y="46" text-anchor="middle" font-size="10" fill="#8d8d96">Lower is better | 1M vectors, M3 Max</text>
<line x1="70" y1="305.0" x2="690" y2="305.0" stroke="#202026" stroke-width="1"/>
<text x="62" y="309.0" text-anchor="end" class="tick">0.00</text>
<line x1="70" y1="263.3" x2="690" y2="263.3" stroke="#202026" stroke-width="1"/>
<text x="62" y="267.3" text-anchor="end" class="tick">0.05</text>
<line x1="70" y1="221.7" x2="690" y2="221.7" stroke="#202026" stroke-width="1"/>
<text x="62" y="225.7" text-anchor="end" class="tick">0.09</text>
<line x1="70" y1="180.0" x2="690" y2="180.0" stroke="#202026" stroke-width="1"/>
<text x="62" y="184.0" text-anchor="end" class="tick">0.14</text>
<line x1="70" y1="138.3" x2="690" y2="138.3" stroke="#202026" stroke-width="1"/>
<text x="62" y="142.3" text-anchor="end" class="tick">0.19</text>
<line x1="70" y1="96.7" x2="690" y2="96.7" stroke="#202026" stroke-width="1"/>
<text x="62" y="100.7" text-anchor="end" class="tick">0.23</text>
<line x1="70" y1="55.0" x2="690" y2="55.0" stroke="#202026" stroke-width="1"/>
<text x="62" y="59.0" text-anchor="end" class="tick">0.28</text>
<line x1="70" y1="305.0" x2="690" y2="305.0" stroke="#4b4b56" stroke-width="1.5"/>
<text x="34" y="180" transform="rotate(-90, 34, 180)" class="axis">ms</text>
<rect x="85.5" y="292.5" width="26.3" height="12.5" rx="2" fill="#ff8d7a"/>
<rect x="116.5" y="298.8" width="26.3" height="6.2" rx="2" fill="#ffd86b"/>
<rect x="147.5" y="290.7" width="26.3" height="14.3" rx="2" fill="#72d7ff"/>
<text x="132" y="327" text-anchor="middle" font-size="10" fill="#d7d7df">0.10%</text>
<rect x="209.5" y="293.4" width="26.3" height="11.6" rx="2" fill="#ff8d7a"/>
<rect x="240.5" y="298.8" width="26.3" height="6.2" rx="2" fill="#ffd86b"/>
<rect x="271.5" y="296.1" width="26.3" height="8.9" rx="2" fill="#72d7ff"/>
<text x="256" y="327" text-anchor="middle" font-size="10" fill="#d7d7df">1.00%</text>
<rect x="333.5" y="288.0" width="26.3" height="17.0" rx="2" fill="#ff8d7a"/>
<rect x="364.5" y="297.0" width="26.3" height="8.0" rx="2" fill="#ffd86b"/>
<rect x="395.5" y="294.3" width="26.3" height="10.7" rx="2" fill="#72d7ff"/>
<text x="380" y="327" text-anchor="middle" font-size="10" fill="#d7d7df">5.00%</text>
<rect x="457.5" y="274.6" width="26.3" height="30.4" rx="2" fill="#ff8d7a"/>
<rect x="488.5" y="291.6" width="26.3" height="13.4" rx="2" fill="#ffd86b"/>
<rect x="519.5" y="282.7" width="26.3" height="22.3" rx="2" fill="#72d7ff"/>
<text x="504" y="327" text-anchor="middle" font-size="10" fill="#d7d7df">20.0%</text>
<rect x="581.5" y="89.8" width="26.3" height="215.2" rx="2" fill="#ff8d7a"/>
<rect x="612.5" y="221.1" width="26.3" height="83.9" rx="2" fill="#ffd86b"/>
<rect x="643.5" y="257.7" width="26.3" height="47.3" rx="2" fill="#72d7ff"/>
<text x="628" y="327" text-anchor="middle" font-size="10" fill="#d7d7df">100%</text>
<rect x="70" y="332" width="12" height="12" rx="2" fill="#ff8d7a"/>
<text x="88" y="342" font-size="10" fill="#d7d7df">bool filter</text>
<rect x="250" y="332" width="12" height="12" rx="2" fill="#ffd86b"/>
<text x="268" y="342" font-size="10" fill="#d7d7df">slot_mask</text>
<rect x="430" y="332" width="12" height="12" rx="2" fill="#72d7ff"/>
<text x="448" y="342" font-size="10" fill="#d7d7df">graph_view</text>
</svg>