<?xml version="1.0" encoding="UTF-8"?>
<svg xmlns="http://www.w3.org/2000/svg" width="1200" height="640" viewBox="0 0 1200 640" role="img" aria-label="Search Latency — x86 (Intel Sapphire Rapids, 8 vCPUs) — Multi-threaded">
  <style>
  text { font-family: "Satoshi", -apple-system, BlinkMacSystemFont, "Segoe UI", sans-serif; }
  .title { font: 800 30px "Satoshi", -apple-system, BlinkMacSystemFont, "Segoe UI", sans-serif; fill: #ffffff; }
  .subtitle { font: 600 17px "Satoshi", -apple-system, BlinkMacSystemFont, "Segoe UI", sans-serif; fill: #d7d7d9; }
  .panel { font: 700 18px "Satoshi", -apple-system, BlinkMacSystemFont, "Segoe UI", sans-serif; fill: #ffffff; letter-spacing: 1.2px; }
  .label { font: 700 16px "Satoshi", -apple-system, BlinkMacSystemFont, "Segoe UI", sans-serif; fill: #f2f2f2; }
  .secondary { font: 500 14px "Satoshi", -apple-system, BlinkMacSystemFont, "Segoe UI", sans-serif; fill: #a9a9ad; }
  .tick { font: 500 13px "Satoshi", -apple-system, BlinkMacSystemFont, "Segoe UI", sans-serif; fill: #85858b; }
  .value { font: 700 14px "Satoshi", -apple-system, BlinkMacSystemFont, "Segoe UI", sans-serif; fill: #f2f2f2; }
  .value-accent { font: 800 14px "Satoshi", -apple-system, BlinkMacSystemFont, "Segoe UI", sans-serif; fill: #ff6a1f; }
  .axis { font: 700 15px "Satoshi", -apple-system, BlinkMacSystemFont, "Segoe UI", sans-serif; fill: #d9d9dc; }
  .legend { font: 700 14px "Satoshi", -apple-system, BlinkMacSystemFont, "Segoe UI", sans-serif; fill: #f2f2f2; }
  .mono { font-family: "SFMono-Regular", Consolas, "Liberation Mono", monospace; }
</style>
  <defs><pattern id="dotgrid" width="8" height="8" patternUnits="userSpaceOnUse"><circle cx="1" cy="1" r="0.75" fill="#3a3a3a" opacity="0.7" /></pattern><marker id="arr" markerWidth="8" markerHeight="8" refX="7" refY="4" orient="auto"><path d="M0,0 L8,4 L0,8 z" fill="#5b5b5f"/></marker></defs>
  <rect width="100%" height="100%" fill="#080808" />
  <text x="112" y="46" class="title">Search Latency — x86 (Intel Sapphire Rapids, 8 vCPUs) — Multi-threaded</text>
  <text x="112" y="76" class="subtitle">100K vectors, 1K queries, k=64, median of 5 runs</text>
  <rect x="112" y="118" width="1036" height="374" fill="#171717" stroke="#323232" stroke-width="1"/>
<rect x="112" y="118" width="1036" height="374" fill="url(#dotgrid)" opacity="0.95"/>
<line x1="112" y1="492.0" x2="1148" y2="492.0" stroke="#2b2b2b" stroke-width="1" />
<text x="102" y="496.0" text-anchor="end" class="tick">0.00</text>
<line x1="112" y1="417.2" x2="1148" y2="417.2" stroke="#2b2b2b" stroke-width="1" />
<text x="102" y="421.2" text-anchor="end" class="tick">0.30</text>
<line x1="112" y1="342.4" x2="1148" y2="342.4" stroke="#2b2b2b" stroke-width="1" />
<text x="102" y="346.4" text-anchor="end" class="tick">0.60</text>
<line x1="112" y1="267.6" x2="1148" y2="267.6" stroke="#2b2b2b" stroke-width="1" />
<text x="102" y="271.6" text-anchor="end" class="tick">0.90</text>
<line x1="112" y1="192.8" x2="1148" y2="192.8" stroke="#2b2b2b" stroke-width="1" />
<text x="102" y="196.8" text-anchor="end" class="tick">1.20</text>
<line x1="112" y1="118.0" x2="1148" y2="118.0" stroke="#2b2b2b" stroke-width="1" />
<text x="102" y="122.0" text-anchor="end" class="tick">1.50</text>
<line x1="112" y1="492.0" x2="1148" y2="492.0" stroke="#5b5b5f" stroke-width="1.5" />
<text x="112" y="104" class="panel">Multi-threaded</text>
<rect x="164.5" y="416.2" width="72" height="75.8" rx="6" fill="#ff5a14" stroke="#ff8a4d" stroke-width="1.5" />
<rect x="246.5" y="418.4" width="72" height="73.6" rx="6" fill="#4a4a4d" />
<text x="200.5" y="410.2" text-anchor="middle" class="value-accent">0.304</text>
<text x="282.5" y="412.4" text-anchor="middle" class="value">0.295</text>
<text x="241.5" y="514" text-anchor="middle" class="label">d=1536</text>
<text x="241.5" y="529" text-anchor="middle" class="secondary">2-bit</text>
<rect x="423.5" y="348.4" width="72" height="143.6" rx="6" fill="#ff5a14" stroke="#ff8a4d" stroke-width="1.5" />
<rect x="505.5" y="344.9" width="72" height="147.1" rx="6" fill="#4a4a4d" />
<text x="459.5" y="342.4" text-anchor="middle" class="value-accent">0.576</text>
<text x="541.5" y="338.9" text-anchor="middle" class="value">0.590</text>
<text x="500.5" y="514" text-anchor="middle" class="label">d=1536</text>
<text x="500.5" y="529" text-anchor="middle" class="secondary">4-bit</text>
<rect x="682.5" y="335.9" width="72" height="156.1" rx="6" fill="#ff5a14" stroke="#ff8a4d" stroke-width="1.5" />
<rect x="764.5" y="344.9" width="72" height="147.1" rx="6" fill="#4a4a4d" />
<text x="718.5" y="329.9" text-anchor="middle" class="value-accent">0.626</text>
<text x="800.5" y="338.9" text-anchor="middle" class="value">0.590</text>
<text x="759.5" y="514" text-anchor="middle" class="label">d=3072</text>
<text x="759.5" y="529" text-anchor="middle" class="secondary">2-bit</text>
<rect x="941.5" y="198.5" width="72" height="293.5" rx="6" fill="#ff5a14" stroke="#ff8a4d" stroke-width="1.5" />
<rect x="1023.5" y="198.5" width="72" height="293.5" rx="6" fill="#4a4a4d" />
<text x="977.5" y="192.5" text-anchor="middle" class="value-accent">1.177</text>
<text x="1059.5" y="192.5" text-anchor="middle" class="value">1.177</text>
<text x="1018.5" y="514" text-anchor="middle" class="label">d=3072</text>
<text x="1018.5" y="529" text-anchor="middle" class="secondary">4-bit</text>
<text x="26" y="305.0" transform="rotate(-90, 26, 305.0)" class="axis">ms / query</text>
<rect x="112" y="604" width="14" height="14" rx="3" fill="#ff5a14" stroke="#ff8a4d" stroke-width="1.5" />
<text x="134" y="615" class="legend" style="fill: #ff6a1f;">TurboQuant</text>
<rect x="252" y="604" width="14" height="14" rx="3" fill="#4a4a4d" />
<text x="274" y="615" class="legend">FAISS</text>
</svg>
